PathFileType	4	(X/Y/Z)	/Users/itak/Documents/Research/Walk-IL/dataset/trc/00270_00010.trc
DataRate	CameraRate	NumFrames	NumMarkers	Units	OrigDataRate	OrigDataStartFrame	OrigNumFrames
100.000000	100.000000	4	55	mm	100.000000	57	456
Frame#	Time	RPSI			LPSI			L3			STRN			T10			C7			CLAV			RBAK			LBAK			LSHO			LUPA			LAEL			LAOL			LWTS			LWPS			LFRA			LIFD			LHPS			LHTS			RSHO			RUPA			RAEL			RAOL			RWTS			RWPS			RFRA			RIFD			RHTS			RHPS			RBHD			LFHD			RFHD			LBHD			LHIP			RASI			LKNE			LANK			LTIP			LTOE			LMT1			LMT5			LHEE			RKNE			RTHI			RANK			RTIP			RTOE			RMT1			RMT5			RHEE			RHIP			LTHI			LASI			*53			*54			
		X1	Y1	Z1	X2	Y2	Z2	X3	Y3	Z3	X4	Y4	Z4	X5	Y5	Z5	X6	Y6	Z6	X7	Y7	Z7	X8	Y8	Z8	X9	Y9	Z9	X10	Y10	Z10	X11	Y11	Z11	X12	Y12	Z12	X13	Y13	Z13	X14	Y14	Z14	X15	Y15	Z15	X16	Y16	Z16	X17	Y17	Z17	X18	Y18	Z18	X19	Y19	Z19	X20	Y20	Z20	X21	Y21	Z21	X22	Y22	Z22	X23	Y23	Z23	X24	Y24	Z24	X25	Y25	Z25	X26	Y26	Z26	X27	Y27	Z27	X28	Y28	Z28	X29	Y29	Z29	X30	Y30	Z30	X31	Y31	Z31	X32	Y32	Z32	X33	Y33	Z33	X34	Y34	Z34	X35	Y35	Z35	X36	Y36	Z36	X37	Y37	Z37	X38	Y38	Z38	X39	Y39	Z39	X40	Y40	Z40	X41	Y41	Z41	X42	Y42	Z42	X43	Y43	Z43	X44	Y44	Z44	X45	Y45	Z45	X46	Y46	Z46	X47	Y47	Z47	X48	Y48	Z48	X49	Y49	Z49	X50	Y50	Z50	X51	Y51	Z51	X52	Y52	Z52	X53	Y53	Z53	X54	Y54	Z54	X55	Y55	Z55	

58	0.5700000000000001	781.6892700195312	982.87890625	104.8484725952148	783.7619018554688	966.7874755859375	-69.49962615966797	803.2340698242188	1060.815063476562	14.78960227966309	1069.7646484375	1228.403076171875	4.048333168029785	798.5258178710938	1183.165405273438	14.52181529998779	859.1265258789062	1421.30810546875	-6.640995502471924	1012.512084960938	1331.90283203125	0.4347259700298309	798.85302734375	1292.463500976562	75.29535675048828	840.9606323242188	1386.132690429688	-109.9976577758789	930.7849731445312	1387.189331054688	-161.4862060546875	891.2261962890625	1273.269287109375	-236.1078186035156	879.0836791992188	1071.767578125	-254.3115844726562	814.163330078125	1061.62255859375	-195.5801544189453	974.6896362304688	863.2747192382812	-210.4186096191406	938.9771118164062	847.04345703125	-271.5935363769531	896.412841796875	971.0537719726562	-263.7428283691406	1001.452758789062	677.5311889648438	-215.4134979248047	954.4061279296875	760.1866455078125	-270.6543884277344	1010.053771972656	768.6702880859375	-236.4357757568359	928.8480224609375	1399.153442382812	151.8948516845703	921.9109497070312	1342.631591796875	219.7675018310547	914.697509765625	1082.7646484375	290.3656616210938	879.6458740234375	1064.840698242188	201.3372039794922	1027.976928710938	862.2553100585938	267.6086120605469	979.504638671875	861.5858154296875	336.9398498535156	939.2589111328125	1017.436889648438	309.6295166015625	1050.809448242188	678.1651000976562	288.677490234375	1063.188598632812	751.3753051757812	297.5580444335938	1010.586608886719	750.925537109375	344.0542907714844	867.1138305664062	1564.65234375	63.44414901733398	1024.982055664062	1628.014892578125	-62.69942092895508	1028.439208984375	1627.372314453125	30.2679443359375	864.5833129882812	1555.72119140625	-82.480712890625	857.4136352539062	922.2525024414062	-163.1952209472656	1004.204040527344	953.3246459960938	139.4441070556641	1057.09228515625	489.5016174316406	-162.2522888183594	907.8629760742188	58.1331672668457	-159.4969482421875	979.967041015625	271.1670532226562	-174.8391876220703	1108.466064453125	27.20767211914062	-93.68997955322266	1035.966674804688	25.78131294250488	-57.11660385131836	1028.909790039062	35.2706298828125	-168.5329284667969	860.0379638671875	63.00678634643555	-102.7077484130859	969.7969970703125	473.8608093261719	152.8530731201172	970.9176635742188	737.651123046875	200.3481903076172	904.4310302734375	36.98965835571289	105.4072113037109	980.1656494140625	348.9260864257812	132.2469024658203	1102.154541015625	35.34426116943359	53.08285903930664	1044.668334960938	31.27823257446289	13.21614456176758	1008.781433105469	30.73046875	125.8716583251953	852.4442749023438	30.60457992553711	54.45485305786133	885.5838012695312	944.2310791015625	210.3372039794922	1003.429626464844	620.9893798828125	-171.9847564697266	993.5277099609375	943.2377319335938	-111.3977661132812	nan	nan	nan	nan	nan	nan	
59	0.58	779.1724243164062	982.6063842773438	105.5539779663086	780.8782348632812	966.5911865234375	-68.89091491699219	800.7814331054688	1060.985961914062	15.90677738189697	1068.245971679688	1227.573486328125	4.524638652801514	796.7949829101562	1183.534423828125	15.7901782989502	858.476806640625	1421.431518554688	-5.956880569458008	1011.424377441406	1331.270629882812	0.8537803888320923	797.905029296875	1293.104248046875	76.47135925292969	839.8247680664062	1386.12060546875	-109.1239852905273	929.4902954101562	1386.68505859375	-160.9087982177734	888.855712890625	1273.052490234375	-235.2792205810547	875.07666015625	1071.675659179688	-253.3595428466797	810.4491577148438	1061.977783203125	-194.2401428222656	970.2533569335938	863.2322387695312	-209.9035491943359	934.2514038085938	846.8684692382812	-271.0158081054688	891.982421875	971.0108032226562	-262.9065856933594	996.8929443359375	677.44482421875	-215.1349334716797	949.5713500976562	760.0071411132812	-270.1290588378906	1005.391967773438	768.3754272460938	-236.2164611816406	928.6649169921875	1399.224609375	152.3615570068359	921.7810668945312	1342.863159179688	220.3742523193359	913.6702880859375	1083.151000976562	291.462890625	877.8748168945312	1065.2451171875	202.5155487060547	1026.226806640625	862.4071655273438	268.4626159667969	977.9942626953125	861.8848266601562	337.9710083007812	938.0284423828125	1017.753723144531	310.6960144042969	1048.802490234375	678.295654296875	289.6336364746094	1061.3857421875	751.5016479492188	298.4064025878906	1008.903991699219	751.1796875	345.0862731933594	866.4912719726562	1564.264770507812	63.73041915893555	1024.35205078125	1627.547119140625	-62.45680618286133	1027.812866210938	1626.9296875	30.49209213256836	863.9180297851562	1555.325317382812	-82.19931793212891	855.1714477539062	922.1484985351562	-162.4127349853516	1001.657470703125	953.1828002929688	140.3209075927734	1058.049560546875	490.7401123046875	-162.4018402099609	908.46533203125	59.32910537719727	-160.3115234375	980.7880859375	272.5567016601562	-175.3721466064453	1108.568359375	27.28755569458008	-93.77297210693359	1036.065551757812	26.20083999633789	-57.60290145874023	1029.370849609375	35.32075500488281	-168.9277954101562	860.6206665039062	64.83576965332031	-103.6628189086914	968.551513671875	473.8858337402344	153.4076538085938	968.7612915039062	737.6171264648438	201.0937957763672	904.3931274414062	36.97110748291016	105.3868865966797	979.3419799804688	349.0367126464844	132.6211547851562	1102.06494140625	35.44904708862305	53.11332702636719	1044.609985351562	31.31708335876465	13.23026943206787	1008.715759277344	30.81308364868164	125.8953399658203	852.4412841796875	30.5598201751709	54.44763565063477	882.993896484375	944.0192260742188	211.1098022460938	1003.304016113281	621.79296875	-171.8732757568359	991.1514892578125	943.196533203125	-110.5265350341797	nan	nan	nan	nan	nan	nan	
60	0.59	776.6033935546875	982.3366088867188	106.2160415649414	778.0457763671875	966.4042358398438	-68.31810760498047	798.3095092773438	1061.180053710938	17.01939964294434	1066.669189453125	1226.733032226562	5.019790172576904	794.9937744140625	1183.8681640625	17.02622604370117	857.7704467773438	1421.52880859375	-5.266300201416016	1010.278991699219	1330.617797851562	1.281278848648071	796.8832397460938	1293.716674804688	77.63201904296875	838.6176147460938	1386.064208984375	-108.2336196899414	928.137451171875	1386.149291992188	-160.3265380859375	886.4673461914062	1272.811401367188	-234.4341278076172	871.0687866210938	1071.5634765625	-252.3899688720703	806.7593383789062	1062.3134765625	-192.8782348632812	965.7090454101562	863.0584106445312	-209.4039916992188	929.4013671875	846.630126953125	-270.4393005371094	887.5308837890625	970.9369506835938	-262.0527038574219	991.9698486328125	677.2203369140625	-214.7743072509766	944.5390014648438	759.747314453125	-269.6036682128906	1000.536437988281	767.9586181640625	-235.9958038330078	928.4373168945312	1399.286010742188	152.8312377929688	921.61181640625	1343.095947265625	220.9889984130859	912.5770263671875	1083.537719726562	292.5702514648438	876.039306640625	1065.6572265625	203.7265472412109	1024.4365234375	862.5949096679688	269.2882080078125	976.45947265625	862.1967163085938	338.98388671875	936.7636108398438	1018.080688476562	311.7768859863281	1046.807006835938	678.464111328125	290.5434875488281	1059.575561523438	751.6654052734375	299.2054138183594	1007.243286132812	751.4597778320312	346.0888977050781	865.8524780273438	1563.879028320312	63.99812316894531	1023.710083007812	1627.032836914062	-62.22916793823242	1027.172729492188	1626.447875976562	30.7022819519043	863.2194213867188	1554.931518554688	-81.9320068359375	852.9562377929688	922.031494140625	-161.6634826660156	999.077392578125	953.0029907226562	141.1926574707031	1058.911376953125	491.9936218261719	-162.5821990966797	909.1145629882812	60.48659515380859	-161.1261596679688	981.5753173828125	273.9454956054688	-175.8995513916016	1108.727294921875	27.38830375671387	-93.87358093261719	1036.25732421875	26.75869941711426	-58.13655090332031	1029.872436523438	35.37737655639648	-169.3249053955078	861.22119140625	66.60639190673828	-104.6340026855469	967.3297119140625	473.9184875488281	153.9734344482422	966.55712890625	737.5745849609375	201.8345184326172	904.3529663085938	36.95351409912109	105.3591461181641	978.5363159179688	349.1616516113281	132.9862823486328	1101.986206054688	35.54923248291016	53.15061950683594	1044.562377929688	31.35887908935547	13.24389171600342	1008.650207519531	30.90108489990234	125.9208526611328	852.444580078125	30.52044868469238	54.43301773071289	880.2280883789062	943.8224487304688	211.8294219970703	1003.0888671875	622.6337280273438	-171.8159027099609	988.7698974609375	943.1572875976562	-109.6597290039062	nan	nan	nan	nan	nan	nan	
61	0.6	773.9852294921875	982.0624389648438	106.8332366943359	775.3128662109375	966.2099609375	-67.76506042480469	795.8408203125	1061.37890625	18.12261009216309	1065.036865234375	1225.8779296875	5.532073020935059	793.1296997070312	1184.165649414062	18.22603416442871	857.0037841796875	1421.596557617188	-4.572587013244629	1009.072448730469	1329.941040039062	1.717170476913452	795.785400390625	1294.283447265625	78.76792144775391	837.3361206054688	1385.962768554688	-107.3300170898438	926.724609375	1385.579833984375	-159.7422332763672	884.0607299804688	1272.53466796875	-233.5697326660156	867.0675048828125	1071.42578125	-251.3959655761719	803.1013793945312	1062.614624023438	-191.4820404052734	961.0716552734375	862.7396850585938	-208.9414367675781	924.4205932617188	846.3218994140625	-269.8634033203125	883.0567626953125	970.82275390625	-261.1793823242188	986.7230834960938	676.85107421875	-214.3743286132812	939.3069458007812	759.39990234375	-269.0850830078125	995.5029907226562	767.42431640625	-235.8010559082031	928.1477661132812	1399.3310546875	153.3021087646484	921.3905639648438	1343.32080078125	221.6102905273438	911.4054565429688	1083.91162109375	293.6788024902344	874.1473999023438	1066.066162109375	204.9716796875	1022.607849121094	862.8133544921875	270.0888977050781	974.903564453125	862.5180053710938	339.982666015625	935.4559326171875	1018.411193847656	312.8707885742188	1044.8291015625	678.66552734375	291.4111633300781	1057.756103515625	751.86181640625	299.9570922851562	1005.606689453125	751.7606811523438	347.0653076171875	865.1725463867188	1563.498901367188	64.24209594726562	1023.053100585938	1626.466552734375	-62.0181999206543	1026.519409179688	1625.923461914062	30.89892196655273	862.4815673828125	1554.531860351562	-81.67282867431641	850.7568359375	921.8912963867188	-160.9507293701172	996.4649047851562	952.7879638671875	142.04931640625	1059.669921875	493.2486267089844	-162.7826232910156	909.7936401367188	61.59098434448242	-161.9339447021484	982.3165283203125	275.3222961425781	-176.4154663085938	1108.937255859375	27.51995468139648	-93.99445343017578	1036.541015625	27.49130058288574	-58.71539306640625	1030.402221679688	35.45664978027344	-169.7181091308594	861.8207397460938	68.28821563720703	-105.6099243164062	966.1278076171875	473.9536743164062	154.5362396240234	964.3135986328125	737.5231323242188	202.5598602294922	904.3118896484375	36.93649291992188	105.3250122070312	977.7472534179688	349.2842712402344	133.3496551513672	1101.920166015625	35.64092636108398	53.19136428833008	1044.528442382812	31.40265083312988	13.25646495819092	1008.588195800781	30.99228668212891	125.9462356567383	852.458984375	30.48589324951172	54.41138076782227	877.2847900390625	943.6442260742188	212.4864044189453	1002.779846191406	623.490478515625	-171.8126678466797	986.3870239257812	943.1198120117188	-108.8055267333984	nan	nan	nan	nan	nan	nan	
